<?xml version="1.0" encoding="UTF-8"?>
<svg width="88px" height="26px" viewBox="0 0 88 26" version="1.1" xmlns="http://www.w3.org/2000/svg" xmlns:xlink="http://www.w3.org/1999/xlink">
    <!-- Generator: Sketch 55.1 (78136) - https://sketchapp.com -->
    <title>logo</title>
    <desc>Created with Sketch.</desc>
    <defs>
        <polygon id="path-1" points="0 17.1939043 7.41129501 21.4660494 22.2336841 12.9105247 22.2336841 21.4660494 29.646989 17.1939043 29.646989 0.108935185"></polygon>
        <linearGradient x1="-23.8117073%" y1="92.2336885%" x2="84.3613195%" y2="51.1898773%" id="linearGradient-3">
            <stop stop-color="#FFFFFF" offset="0%"></stop>
            <stop stop-color="#FFFFFF" offset="100%"></stop>
        </linearGradient>
        <polygon id="path-4" points="22.23489 0.0498130841 7.41129501 8.68509346 7.41129501 0.0498130841 0 4.36228972 0 21.6069315 29.646989 4.36228972"></polygon>
        <linearGradient x1="96.4377813%" y1="15.4289503%" x2="-9.98155798%" y2="59.2590123%" id="linearGradient-6">
            <stop stop-color="#FFFFFF" offset="0%"></stop>
            <stop stop-color="#FFFFFF" offset="100%"></stop>
        </linearGradient>
        <polygon id="path-7" points="0.137381764 4.37465116 7.36244922 8.66666667 7.36244922 0.0713488372"></polygon>
        <linearGradient x1="17.2783808%" y1="54.7633715%" x2="109.329359%" y2="48.3192492%" id="linearGradient-9">
            <stop stop-color="#FFFFFF" offset="0%"></stop>
            <stop stop-color="#FFFFFF" offset="100%"></stop>
        </linearGradient>
        <polygon id="path-10" points="0.171042254 0.0495813953 0.171042254 8.64469767 7.39708821 4.342"></polygon>
        <linearGradient x1="98.6350306%" y1="49.9996522%" x2="-0.468302188%" y2="49.9996522%" id="linearGradient-12">
            <stop stop-color="#FFFFFF" offset="0%"></stop>
            <stop stop-color="#FFFFFF" offset="100%"></stop>
        </linearGradient>
        <polygon id="path-13" points="0 25.3809524 87.858758 25.3809524 87.858758 0.0487790179 0 0.0487790179"></polygon>
    </defs>
    <g id="页面1" stroke="none" stroke-width="1" fill="none" fill-rule="evenodd">
        <g id="首页-1" transform="translate(-22.000000, -20.000000)">
            <g id="header" transform="translate(22.000000, 20.000000)">
                <g id="logo">
                    <g>
                        <rect id="矩形" fill="#D8D8D8" opacity="0" x="0" y="0" width="88" height="26"></rect>
                        <g id="编组">
                            <g transform="translate(0.000000, 4.333333)">
                                <mask id="mask-2" fill="white">
                                    <use xlink:href="#path-1"></use>
                                </mask>
                                <g id="Clip-2"></g>
                                <polygon id="Fill-1" fill="url(#linearGradient-3)" mask="url(#mask-2)" points="0 17.1939043 7.41129501 21.4660494 22.2336841 12.9105247 22.2336841 21.4660494 29.646989 17.1939043 29.646989 0.108935185"></polygon>
                            </g>
                            <g>
                                <mask id="mask-5" fill="white">
                                    <use xlink:href="#path-4"></use>
                                </mask>
                                <g id="Clip-4"></g>
                                <polygon id="Fill-3" fill="url(#linearGradient-6)" mask="url(#mask-5)" points="22.23489 0.0498130841 7.41129501 8.68509346 7.41129501 0.0498130841 0 4.36228972 0 21.6069315 29.646989 4.36228972"></polygon>
                            </g>
                            <g transform="translate(14.873239, 17.333333)">
                                <mask id="mask-8" fill="white">
                                    <use xlink:href="#path-7"></use>
                                </mask>
                                <g id="Clip-6"></g>
                                <polygon id="Fill-5" fill="url(#linearGradient-9)" mask="url(#mask-8)" points="0.137381764 4.37465116 7.36244922 8.66666667 7.36244922 0.0713488372"></polygon>
                            </g>
                            <g transform="translate(7.436620, 0.000000)">
                                <mask id="mask-11" fill="white">
                                    <use xlink:href="#path-10"></use>
                                </mask>
                                <g id="Clip-8"></g>
                                <polygon id="Fill-7" fill="url(#linearGradient-12)" mask="url(#mask-11)" points="0.171042254 0.0495813953 0.171042254 8.64469767 7.39708821 4.342"></polygon>
                            </g>
                            <polygon id="Fill-9" fill="#FFFFFF" points="47.0985915 19.1904762 47.0985915 18.5714286 49.5732019 18.5714286 49.5774648 19.1904762"></polygon>
                            <polygon id="Fill-10" fill="#FFFFFF" points="47.0985915 21.047619 47.0985915 20.4285714 48.956152 20.4285714 48.9577465 21.047619"></polygon>
                            <polygon id="Fill-11" fill="#FFFFFF" points="47.0985915 22.2857143 47.0985915 21.6666667 49.5722172 21.6666667 49.5774648 22.2857143"></polygon>
                            <polygon id="Fill-12" fill="#FFFFFF" points="47.0985915 22.2857143 47.7183099 22.2857143 47.7183099 18.5714286 47.0985915 18.5714286"></polygon>
                            <polygon id="Fill-13" fill="#FFFFFF" points="53.915493 19.1904762 57.0140845 19.1904762 57.0140845 18.5714286 53.915493 18.5714286"></polygon>
                            <polygon id="Fill-14" fill="#FFFFFF" points="55.1549296 22.2857143 55.7746479 22.2857143 55.7746479 18.5714286 55.1549296 18.5714286"></polygon>
                            <polygon id="Fill-15" fill="#FFFFFF" points="69.4084507 22.2857143 71.8873239 22.2857143 71.8873239 21.6666667 69.4084507 21.6666667"></polygon>
                            <polygon id="Fill-16" fill="#FFFFFF" points="69.4084507 22.2857143 70.028169 22.2857143 70.028169 18.5714286 69.4084507 18.5714286"></polygon>
                            <polygon id="Fill-17" fill="#FFFFFF" points="61.971831 21.047619 61.971831 20.4285714 64.0874782 20.4285714 64.4507042 21.047619"></polygon>
                            <polygon id="Fill-18" fill="#FFFFFF" points="64.5801588 22.2857143 65.0704225 22.2857143 63.7022245 18.5714286 63.2112676 18.5714286"></polygon>
                            <polygon id="Fill-19" fill="#FFFFFF" points="61.842424 22.2857143 61.3521127 22.2857143 62.7209563 18.5714286 63.2112676 18.5714286"></polygon>
                            <polygon id="Fill-20" fill="#FFFFFF" points="41.5211268 22.2857143 42.1408451 22.2857143 42.1395386 18.5714286 41.5211268 18.5714286"></polygon>
                            <polygon id="Fill-21" fill="#FFFFFF" points="37.8028169 22.2857143 38.4225352 22.2857143 38.421882 18.5714286 37.8028169 18.5714286"></polygon>
                            <polygon id="Fill-22" fill="#FFFFFF" points="39.6996057 22.2857143 40.2816901 22.2857143 39.0083417 18.5714286 38.4225352 18.5714286"></polygon>
                            <polygon id="Fill-23" fill="#FFFFFF" points="40.2379589 22.2857143 39.6619718 22.2857143 40.9428953 18.5714286 41.5211268 18.5714286"></polygon>
                            <polygon id="Fill-24" fill="#FFFFFF" points="76.8450704 21.047619 79.3239437 21.047619 79.3239437 20.4285714 76.8450704 20.4285714"></polygon>
                            <polygon id="Fill-25" fill="#FFFFFF" points="79.4520018 22.2857143 79.943662 22.2857143 78.5749536 18.5714286 78.084507 18.5714286"></polygon>
                            <polygon id="Fill-26" fill="#FFFFFF" points="76.7123563 22.2857143 76.2253521 22.2857143 77.5924697 18.5714286 78.084507 18.5714286"></polygon>
                            <g>
                                <path d="M86.239558,19.7347612 C86.16301,19.8176459 86.054316,19.8789171 85.9098594,19.9148074 C85.8031744,19.9435592 85.6199416,19.9566463 85.3744256,19.9566463 L84.405421,19.9566463 L84.405421,18.8607047 L85.3368548,18.8607047 C85.6404347,18.8607047 85.8546082,18.8803353 85.9763616,18.9152341 C86.1015306,18.9465637 86.200179,19.0139818 86.2614575,19.1008323 C86.329768,19.194028 86.3572932,19.3020953 86.3572932,19.4206719 C86.3538776,19.5457921 86.3114849,19.6518766 86.239558,19.7347612 M86.8802703,20.4601013 C86.7434484,20.3008754 86.6273205,20.1979636 86.4507178,20.130942 C86.6500237,20.0460745 86.6701151,19.966759 86.7761973,19.8315261 C86.8802703,19.6941121 86.904179,19.5148591 86.9126174,19.3621768 C86.9150283,19.1964074 86.8648,19.0383714 86.7617315,18.8850942 C86.6500237,18.7320153 86.5031562,18.6213702 86.3072658,18.5478051 C86.1129826,18.4746366 85.8523982,18.4377549 85.5301333,18.4377549 L84.405421,18.4377549 L83.9382977,18.4377549 L83.8374393,18.4377549 L83.8374393,22.0529543 L84.405421,22.0529543 L84.405421,21.6274268 L84.405421,21.5229286 L84.405421,20.3831653 L85.4282703,20.3831653 C85.6968913,20.3831653 85.9040329,20.4067616 86.0422612,20.4430484 C86.1881242,20.4856805 86.2986265,20.5558747 86.3779872,20.6560105 C86.4555397,20.7529737 86.4953205,20.8707571 86.4892932,21.0049986 C86.4878868,21.1170317 86.4555397,21.2215298 86.3980785,21.3089751 C86.3416219,21.3978085 86.2664804,21.4624506 86.1766721,21.5116262 C86.0902795,21.556836 85.9797772,21.5891571 85.8479781,21.610374 C85.7770557,21.6200901 85.649074,21.6274268 85.4676493,21.6274268 L84.2282155,21.6274268 L83.9322703,22.0529543 L85.4559963,22.0529543 C85.7270283,22.0529543 85.954663,22.0309443 86.1433205,21.9898985 C86.329768,21.9528185 86.4878868,21.8957114 86.6118502,21.8128267 C86.7348091,21.7362873 86.8467178,21.6238576 86.9351196,21.4737531 C87.0229187,21.3319766 87.0681242,21.1743371 87.0729461,21.0049986 C87.0781699,20.7965972 87.0156858,20.6127836 86.8802703,20.4601013" id="Fill-27" fill="#FFFFFF"></path>
                                <polygon id="Fill-29" fill="#FFFFFF" points="59.9815434 4.94210766 61.9076986 4.83126429 61.9510959 3.68039673 56.6865662 4.01114226 56.5969589 4.01689263 56.5485388 5.16557902 58.7483379 5.00873266 58.7483379 6.29106562 56.4446667 6.29106562 56.4446667 7.42488036 58.7483379 7.42488036 58.7483379 14.8020128 59.9815434 14.8020128 59.9815434 7.42488036 62.1751142 7.42488036 62.1751142 6.29106562 59.9815434 6.29106562"></polygon>
                                <mask id="mask-14" fill="white">
                                    <use xlink:href="#path-13"></use>
                                </mask>
                                <g id="Clip-32"></g>
                                <polygon id="Fill-31" fill="#FFFFFF" mask="url(#mask-14)" points="60.6607306 14.6830792 61.910411 14.6830792 61.910411 8.43044196 60.6607306 8.43044196"></polygon>
                                <polygon id="Fill-33" fill="#FFFFFF" mask="url(#mask-14)" points="56.33979 14.6830396 57.5940913 14.6830396 58.257105 8.43040231 57.011242 8.43040231"></polygon>
                                <polygon id="Fill-34" fill="#FFFFFF" mask="url(#mask-14)" points="67.7610447 10.6448507 67.7610447 3.37320789 66.514579 3.37320789 66.514579 10.8326301 62.6809534 11.4387987 62.6809534 12.5676562 66.514579 11.9620825 66.514579 14.9437496 67.7610447 14.9437496 67.7610447 11.7719237 69.3201315 11.5716521 69.3201315 10.443786"></polygon>
                                <polygon id="Fill-35" fill="#FFFFFF" mask="url(#mask-14)" points="65.8370594 5.31040908 62.6809132 4.32590573 62.6809132 5.54280342 65.8370594 6.52572046"></polygon>
                                <polygon id="Fill-36" fill="#FFFFFF" mask="url(#mask-14)" points="65.8370594 8.66273717 62.6809132 7.67446633 62.6809132 8.84397303 65.8370594 9.82609691"></polygon>
                                <polyline id="Fill-37" fill="#FFFFFF" mask="url(#mask-14)" points="84.0403014 8.13175971 84.0403014 5.93789364 87.3467306 5.93789364 87.3467306 4.79694051 84.0403014 4.79694051 84.0403014 3.37322772 82.8036804 3.37322772 82.8036804 4.79694051 79.497653 4.79694051 79.497653 5.93789364 82.8036804 5.93789364 82.8036804 8.13175971"></polyline>
                                <polygon id="Fill-38" fill="#FFFFFF" mask="url(#mask-14)" points="79.8011324 8.87778125 87.0661553 8.87778125 87.0661553 7.7372247 79.8011324 7.7372247"></polygon>
                                <polygon id="Fill-39" fill="#FFFFFF" mask="url(#mask-14)" points="87.0636237 8.21426763 85.9079708 8.21426763 85.9079708 9.70539859 87.0636237 9.64333423"></polygon>
                                <polyline id="Fill-40" fill="#FFFFFF" mask="url(#mask-14)" points="76.9390831 13.8379927 75.0975123 13.8379927 75.0975123 14.9436504 77.0767087 14.9436504"></polyline>
                                <path d="M48.6619105,12.0588077 L46.0028237,12.0588077 L46.0028237,13.1628792 L49.0629333,13.1628792 L49.063737,13.1628792 L49.0743854,13.1628792 L49.0743854,6.68756369 L43.4823671,6.69232262 L43.7417461,5.16292195 L49.5766685,5.16292195 L49.5766685,4.03208155 L41.0101297,4.03208155 L41.0101297,5.16292195 L42.3612712,5.16292195 C42.3222941,5.50358192 41.5226594,10.0380477 41.5226594,10.0380477 L40.9651251,13.1628792 L42.4106959,13.1628792 L42.9256365,9.99878653 C42.9256365,9.99878653 43.2553352,7.97683676 43.2814539,7.82157671 L47.8504219,7.82157671 L47.8504219,12.7885101" id="Fill-41" fill="#FFFFFF" mask="url(#mask-14)"></path>
                                <polygon id="Fill-42" fill="#FFFFFF" mask="url(#mask-14)" points="39.2337151 3.99946306 37.9641443 3.99946306 38.3784274 5.5907298 39.6481991 5.5907298"></polygon>
                                <polygon id="Fill-43" fill="#FFFFFF" mask="url(#mask-14)" points="77.9756347 9.12978635 77.9756347 6.18916507 78.7915434 6.18916507 78.7915434 5.0595144 77.9756347 5.0595144 77.9756347 3.37247422 76.7269589 3.37247422 76.7269589 5.0595144 74.8773516 5.0595144 74.8773516 6.18916507 76.7269589 6.18916507 76.7269589 9.74527444 74.9299909 10.6129858 74.8739361 10.6401513 74.8739361 11.8867923 76.7269589 11.0289954 76.7259543 14.9436108 77.9754338 14.9436108 77.9756347 10.4117227 78.7899361 9.97707392 78.7929498 8.71655272"></polygon>
                                <polygon id="Fill-44" fill="#FFFFFF" mask="url(#mask-14)" points="80.7892037 14.9409735 79.0018795 14.9409735 86.297642 8.80056763 87.0677425 9.64329457"></polygon>
                                <polygon id="Fill-45" fill="#FFFFFF" mask="url(#mask-14)" points="86.0716146 14.9409735 87.8589388 14.9409735 81.5804 9.64329457 79.7930758 9.64329457"></polygon>
                                <polygon id="Fill-46" fill="#FFFFFF" mask="url(#mask-14)" points="38.4961826 14.9320703 37.3124018 14.9320703 38.5241096 12.9150778 39.5174247 13.1210997"></polygon>
                                <polygon id="Fill-47" fill="#FFFFFF" mask="url(#mask-14)" points="39.7359982 13.8043034 39.7235416 6.54515275 39.7181169 6.54515275 37.4200712 6.54515275 37.4200712 7.74519591 38.481295 7.74519591 38.474263 14.9289969 38.661916 14.9293935 39.2282904 14.0830973 40.1888566 14.9301866 49.5745187 14.9351438 49.5745187 13.8039068"></polygon>
                                <polygon id="Fill-48" fill="#FFFFFF" mask="url(#mask-14)" points="39.6314228 13.8778884 39.7234411 13.0018489 40.6024365 13.836446"></polygon>
                            </g>
                        </g>
                    </g>
                </g>
            </g>
        </g>
    </g>
</svg>